<mxfile host="app.diagrams.net" modified="2022-06-30T18:08:59.849Z" agent="5.0 (Windows NT 10.0; Win64; x64) AppleWebKit/537.36 (KHTML, like Gecko) Chrome/103.0.0.0 Safari/537.36" etag="IkduWuPfxls3lEJI-IS4" version="20.0.4" type="github">
  <diagram id="cNOZ1OZUTCq14ZBPNImY" name="Page-1">
    <mxGraphModel dx="1673" dy="829" grid="1" gridSize="10" guides="1" tooltips="1" connect="1" arrows="1" fold="1" page="1" pageScale="1" pageWidth="1100" pageHeight="1700" background="none" math="0" shadow="0">
      <root>
        <mxCell id="0" />
        <mxCell id="1" parent="0" />
        <mxCell id="gd4_pWR6666HpywGp_ee-10" value="room" style="swimlane;fontStyle=1;align=center;verticalAlign=top;childLayout=stackLayout;horizontal=1;startSize=26;horizontalStack=0;resizeParent=1;resizeParentMax=0;resizeLast=0;collapsible=1;marginBottom=0;strokeColor=#82b366;fillColor=#d5e8d4;gradientColor=none;sketch=0;glass=0;shadow=0;rounded=0;" vertex="1" parent="1">
          <mxGeometry x="390" y="120" width="210" height="208" as="geometry" />
        </mxCell>
        <mxCell id="gd4_pWR6666HpywGp_ee-11" value="id: int PK " style="text;strokeColor=default;fillColor=none;align=left;verticalAlign=top;spacingLeft=4;spacingRight=4;overflow=hidden;rotatable=0;points=[[0,0.5],[1,0.5]];portConstraint=eastwest;" vertex="1" parent="gd4_pWR6666HpywGp_ee-10">
          <mxGeometry y="26" width="210" height="26" as="geometry" />
        </mxCell>
        <mxCell id="gd4_pWR6666HpywGp_ee-13" value="room_code: string" style="text;strokeColor=default;fillColor=none;align=left;verticalAlign=top;spacingLeft=4;spacingRight=4;overflow=hidden;rotatable=0;points=[[0,0.5],[1,0.5]];portConstraint=eastwest;" vertex="1" parent="gd4_pWR6666HpywGp_ee-10">
          <mxGeometry y="52" width="210" height="26" as="geometry" />
        </mxCell>
        <mxCell id="gd4_pWR6666HpywGp_ee-14" value="player_count: int" style="text;strokeColor=default;fillColor=none;align=left;verticalAlign=top;spacingLeft=4;spacingRight=4;overflow=hidden;rotatable=0;points=[[0,0.5],[1,0.5]];portConstraint=eastwest;" vertex="1" parent="gd4_pWR6666HpywGp_ee-10">
          <mxGeometry y="78" width="210" height="26" as="geometry" />
        </mxCell>
        <mxCell id="gd4_pWR6666HpywGp_ee-15" value="round_time_limit: int (180,120,60)" style="text;strokeColor=default;fillColor=none;align=left;verticalAlign=top;spacingLeft=4;spacingRight=4;overflow=hidden;rotatable=0;points=[[0,0.5],[1,0.5]];portConstraint=eastwest;" vertex="1" parent="gd4_pWR6666HpywGp_ee-10">
          <mxGeometry y="104" width="210" height="26" as="geometry" />
        </mxCell>
        <mxCell id="gd4_pWR6666HpywGp_ee-16" value="active: boolean" style="text;strokeColor=default;fillColor=none;align=left;verticalAlign=top;spacingLeft=4;spacingRight=4;overflow=hidden;rotatable=0;points=[[0,0.5],[1,0.5]];portConstraint=eastwest;" vertex="1" parent="gd4_pWR6666HpywGp_ee-10">
          <mxGeometry y="130" width="210" height="26" as="geometry" />
        </mxCell>
        <mxCell id="gd4_pWR6666HpywGp_ee-19" value="created_at: datetime" style="text;strokeColor=default;fillColor=none;align=left;verticalAlign=top;spacingLeft=4;spacingRight=4;overflow=hidden;rotatable=0;points=[[0,0.5],[1,0.5]];portConstraint=eastwest;" vertex="1" parent="gd4_pWR6666HpywGp_ee-10">
          <mxGeometry y="156" width="210" height="26" as="geometry" />
        </mxCell>
        <mxCell id="gd4_pWR6666HpywGp_ee-20" value="updated_at: datetime" style="text;strokeColor=default;fillColor=none;align=left;verticalAlign=top;spacingLeft=4;spacingRight=4;overflow=hidden;rotatable=0;points=[[0,0.5],[1,0.5]];portConstraint=eastwest;" vertex="1" parent="gd4_pWR6666HpywGp_ee-10">
          <mxGeometry y="182" width="210" height="26" as="geometry" />
        </mxCell>
        <mxCell id="gd4_pWR6666HpywGp_ee-21" value="player" style="swimlane;fontStyle=1;align=center;verticalAlign=top;childLayout=stackLayout;horizontal=1;startSize=26;horizontalStack=0;resizeParent=1;resizeParentMax=0;resizeLast=0;collapsible=1;marginBottom=0;rounded=0;shadow=0;glass=0;sketch=0;strokeColor=#82b366;fillColor=#d5e8d4;" vertex="1" parent="1">
          <mxGeometry x="50" y="120" width="160" height="208" as="geometry" />
        </mxCell>
        <mxCell id="gd4_pWR6666HpywGp_ee-22" value="id: int PK" style="text;strokeColor=default;fillColor=none;align=left;verticalAlign=top;spacingLeft=4;spacingRight=4;overflow=hidden;rotatable=0;points=[[0,0.5],[1,0.5]];portConstraint=eastwest;rounded=0;shadow=0;glass=0;sketch=0;" vertex="1" parent="gd4_pWR6666HpywGp_ee-21">
          <mxGeometry y="26" width="160" height="26" as="geometry" />
        </mxCell>
        <mxCell id="gd4_pWR6666HpywGp_ee-24" value="room_code: string " style="text;strokeColor=default;fillColor=none;align=left;verticalAlign=top;spacingLeft=4;spacingRight=4;overflow=hidden;rotatable=0;points=[[0,0.5],[1,0.5]];portConstraint=eastwest;rounded=0;shadow=0;glass=0;sketch=0;" vertex="1" parent="gd4_pWR6666HpywGp_ee-21">
          <mxGeometry y="52" width="160" height="26" as="geometry" />
        </mxCell>
        <mxCell id="gd4_pWR6666HpywGp_ee-26" value="username: string" style="text;strokeColor=default;fillColor=none;align=left;verticalAlign=top;spacingLeft=4;spacingRight=4;overflow=hidden;rotatable=0;points=[[0,0.5],[1,0.5]];portConstraint=eastwest;rounded=0;shadow=0;glass=0;sketch=0;" vertex="1" parent="gd4_pWR6666HpywGp_ee-21">
          <mxGeometry y="78" width="160" height="26" as="geometry" />
        </mxCell>
        <mxCell id="gd4_pWR6666HpywGp_ee-27" value="session_token: string" style="text;strokeColor=default;fillColor=none;align=left;verticalAlign=top;spacingLeft=4;spacingRight=4;overflow=hidden;rotatable=0;points=[[0,0.5],[1,0.5]];portConstraint=eastwest;rounded=0;shadow=0;glass=0;sketch=0;" vertex="1" parent="gd4_pWR6666HpywGp_ee-21">
          <mxGeometry y="104" width="160" height="26" as="geometry" />
        </mxCell>
        <mxCell id="gd4_pWR6666HpywGp_ee-28" value="kicked: boolean" style="text;strokeColor=default;fillColor=none;align=left;verticalAlign=top;spacingLeft=4;spacingRight=4;overflow=hidden;rotatable=0;points=[[0,0.5],[1,0.5]];portConstraint=eastwest;rounded=0;shadow=0;glass=0;sketch=0;" vertex="1" parent="gd4_pWR6666HpywGp_ee-21">
          <mxGeometry y="130" width="160" height="26" as="geometry" />
        </mxCell>
        <mxCell id="gd4_pWR6666HpywGp_ee-29" value="created_at: datetime&#xa;" style="text;strokeColor=default;fillColor=none;align=left;verticalAlign=top;spacingLeft=4;spacingRight=4;overflow=hidden;rotatable=0;points=[[0,0.5],[1,0.5]];portConstraint=eastwest;rounded=0;shadow=0;glass=0;sketch=0;" vertex="1" parent="gd4_pWR6666HpywGp_ee-21">
          <mxGeometry y="156" width="160" height="26" as="geometry" />
        </mxCell>
        <mxCell id="gd4_pWR6666HpywGp_ee-30" value="updated_at: datetime" style="text;strokeColor=default;fillColor=none;align=left;verticalAlign=top;spacingLeft=4;spacingRight=4;overflow=hidden;rotatable=0;points=[[0,0.5],[1,0.5]];portConstraint=eastwest;rounded=0;shadow=0;glass=0;sketch=0;" vertex="1" parent="gd4_pWR6666HpywGp_ee-21">
          <mxGeometry y="182" width="160" height="26" as="geometry" />
        </mxCell>
        <mxCell id="gd4_pWR6666HpywGp_ee-34" value="category" style="swimlane;fontStyle=1;align=center;verticalAlign=top;childLayout=stackLayout;horizontal=1;startSize=26;horizontalStack=0;resizeParent=1;resizeParentMax=0;resizeLast=0;collapsible=1;marginBottom=0;rounded=0;shadow=0;glass=0;sketch=0;strokeColor=#82b366;fillColor=#d5e8d4;" vertex="1" parent="1">
          <mxGeometry x="120" y="370" width="160" height="78" as="geometry" />
        </mxCell>
        <mxCell id="gd4_pWR6666HpywGp_ee-35" value="id: int PK" style="text;strokeColor=default;fillColor=none;align=left;verticalAlign=top;spacingLeft=4;spacingRight=4;overflow=hidden;rotatable=0;points=[[0,0.5],[1,0.5]];portConstraint=eastwest;rounded=0;shadow=0;glass=0;sketch=0;" vertex="1" parent="gd4_pWR6666HpywGp_ee-34">
          <mxGeometry y="26" width="160" height="26" as="geometry" />
        </mxCell>
        <mxCell id="gd4_pWR6666HpywGp_ee-37" value="category: string" style="text;strokeColor=default;fillColor=none;align=left;verticalAlign=top;spacingLeft=4;spacingRight=4;overflow=hidden;rotatable=0;points=[[0,0.5],[1,0.5]];portConstraint=eastwest;rounded=0;shadow=0;glass=0;sketch=0;" vertex="1" parent="gd4_pWR6666HpywGp_ee-34">
          <mxGeometry y="52" width="160" height="26" as="geometry" />
        </mxCell>
        <mxCell id="gd4_pWR6666HpywGp_ee-38" value="field_data" style="swimlane;fontStyle=1;align=center;verticalAlign=top;childLayout=stackLayout;horizontal=1;startSize=26;horizontalStack=0;resizeParent=1;resizeParentMax=0;resizeLast=0;collapsible=1;marginBottom=0;rounded=0;shadow=0;glass=0;sketch=0;strokeColor=#82b366;fillColor=#d5e8d4;" vertex="1" parent="1">
          <mxGeometry x="425" y="370" width="160" height="130" as="geometry" />
        </mxCell>
        <mxCell id="gd4_pWR6666HpywGp_ee-39" value="id: int PK" style="text;strokeColor=default;fillColor=none;align=left;verticalAlign=top;spacingLeft=4;spacingRight=4;overflow=hidden;rotatable=0;points=[[0,0.5],[1,0.5]];portConstraint=eastwest;rounded=0;shadow=0;glass=0;sketch=0;" vertex="1" parent="gd4_pWR6666HpywGp_ee-38">
          <mxGeometry y="26" width="160" height="26" as="geometry" />
        </mxCell>
        <mxCell id="gd4_pWR6666HpywGp_ee-41" value="data: string" style="text;strokeColor=default;fillColor=none;align=left;verticalAlign=top;spacingLeft=4;spacingRight=4;overflow=hidden;rotatable=0;points=[[0,0.5],[1,0.5]];portConstraint=eastwest;rounded=0;shadow=0;glass=0;sketch=0;" vertex="1" parent="gd4_pWR6666HpywGp_ee-38">
          <mxGeometry y="52" width="160" height="26" as="geometry" />
        </mxCell>
        <mxCell id="gd4_pWR6666HpywGp_ee-42" value="letter: string" style="text;strokeColor=default;fillColor=none;align=left;verticalAlign=top;spacingLeft=4;spacingRight=4;overflow=hidden;rotatable=0;points=[[0,0.5],[1,0.5]];portConstraint=eastwest;rounded=0;shadow=0;glass=0;sketch=0;" vertex="1" parent="gd4_pWR6666HpywGp_ee-38">
          <mxGeometry y="78" width="160" height="26" as="geometry" />
        </mxCell>
        <mxCell id="gd4_pWR6666HpywGp_ee-43" value="category_id: int FK" style="text;strokeColor=default;fillColor=none;align=left;verticalAlign=top;spacingLeft=4;spacingRight=4;overflow=hidden;rotatable=0;points=[[0,0.5],[1,0.5]];portConstraint=eastwest;rounded=0;shadow=0;glass=0;sketch=0;" vertex="1" parent="gd4_pWR6666HpywGp_ee-38">
          <mxGeometry y="104" width="160" height="26" as="geometry" />
        </mxCell>
        <mxCell id="gd4_pWR6666HpywGp_ee-44" value="Relation" style="endArrow=none;html=1;endSize=12;startArrow=ERmany;startSize=14;startFill=0;edgeStyle=elbowEdgeStyle;rounded=0;endFill=0;entryX=0;entryY=0.5;entryDx=0;entryDy=0;" edge="1" parent="1" target="gd4_pWR6666HpywGp_ee-13">
          <mxGeometry x="0.1351" y="15" relative="1" as="geometry">
            <mxPoint x="210" y="190" as="sourcePoint" />
            <mxPoint x="360" y="190" as="targetPoint" />
            <Array as="points">
              <mxPoint x="285" y="170" />
            </Array>
            <mxPoint as="offset" />
          </mxGeometry>
        </mxCell>
        <mxCell id="gd4_pWR6666HpywGp_ee-52" value="Relation" style="endArrow=none;html=1;endSize=12;startArrow=ERmany;startSize=14;startFill=0;edgeStyle=elbowEdgeStyle;rounded=0;endFill=0;entryX=0;entryY=0.5;entryDx=0;entryDy=0;" edge="1" parent="1" target="gd4_pWR6666HpywGp_ee-43">
          <mxGeometry x="0.6847" y="17" relative="1" as="geometry">
            <mxPoint x="280" y="410" as="sourcePoint" />
            <mxPoint x="410" y="409.22" as="targetPoint" />
            <Array as="points">
              <mxPoint x="355" y="388.72" />
            </Array>
            <mxPoint as="offset" />
          </mxGeometry>
        </mxCell>
        <mxCell id="gd4_pWR6666HpywGp_ee-53" value="round" style="swimlane;fontStyle=1;align=center;verticalAlign=top;childLayout=stackLayout;horizontal=1;startSize=26;horizontalStack=0;resizeParent=1;resizeParentMax=0;resizeLast=0;collapsible=1;marginBottom=0;rounded=0;shadow=0;glass=0;sketch=0;strokeColor=#82b366;fillColor=#d5e8d4;" vertex="1" parent="1">
          <mxGeometry x="720" y="120" width="160" height="182" as="geometry" />
        </mxCell>
        <mxCell id="gd4_pWR6666HpywGp_ee-54" value="id: int PK" style="text;strokeColor=default;fillColor=none;align=left;verticalAlign=top;spacingLeft=4;spacingRight=4;overflow=hidden;rotatable=0;points=[[0,0.5],[1,0.5]];portConstraint=eastwest;rounded=0;shadow=0;glass=0;sketch=0;" vertex="1" parent="gd4_pWR6666HpywGp_ee-53">
          <mxGeometry y="26" width="160" height="26" as="geometry" />
        </mxCell>
        <mxCell id="gd4_pWR6666HpywGp_ee-56" value="room_code: string FK" style="text;strokeColor=default;fillColor=none;align=left;verticalAlign=top;spacingLeft=4;spacingRight=4;overflow=hidden;rotatable=0;points=[[0,0.5],[1,0.5]];portConstraint=eastwest;rounded=0;shadow=0;glass=0;sketch=0;" vertex="1" parent="gd4_pWR6666HpywGp_ee-53">
          <mxGeometry y="52" width="160" height="26" as="geometry" />
        </mxCell>
        <mxCell id="gd4_pWR6666HpywGp_ee-57" value="letter: string" style="text;strokeColor=default;fillColor=none;align=left;verticalAlign=top;spacingLeft=4;spacingRight=4;overflow=hidden;rotatable=0;points=[[0,0.5],[1,0.5]];portConstraint=eastwest;rounded=0;shadow=0;glass=0;sketch=0;" vertex="1" parent="gd4_pWR6666HpywGp_ee-53">
          <mxGeometry y="78" width="160" height="26" as="geometry" />
        </mxCell>
        <mxCell id="gd4_pWR6666HpywGp_ee-58" value="round_number: int" style="text;strokeColor=default;fillColor=none;align=left;verticalAlign=top;spacingLeft=4;spacingRight=4;overflow=hidden;rotatable=0;points=[[0,0.5],[1,0.5]];portConstraint=eastwest;rounded=0;shadow=0;glass=0;sketch=0;" vertex="1" parent="gd4_pWR6666HpywGp_ee-53">
          <mxGeometry y="104" width="160" height="26" as="geometry" />
        </mxCell>
        <mxCell id="gd4_pWR6666HpywGp_ee-59" value="created_at: datetime" style="text;strokeColor=default;fillColor=none;align=left;verticalAlign=top;spacingLeft=4;spacingRight=4;overflow=hidden;rotatable=0;points=[[0,0.5],[1,0.5]];portConstraint=eastwest;rounded=0;shadow=0;glass=0;sketch=0;" vertex="1" parent="gd4_pWR6666HpywGp_ee-53">
          <mxGeometry y="130" width="160" height="26" as="geometry" />
        </mxCell>
        <mxCell id="gd4_pWR6666HpywGp_ee-60" value="updated_at: datetime" style="text;strokeColor=default;fillColor=none;align=left;verticalAlign=top;spacingLeft=4;spacingRight=4;overflow=hidden;rotatable=0;points=[[0,0.5],[1,0.5]];portConstraint=eastwest;rounded=0;shadow=0;glass=0;sketch=0;" vertex="1" parent="gd4_pWR6666HpywGp_ee-53">
          <mxGeometry y="156" width="160" height="26" as="geometry" />
        </mxCell>
        <mxCell id="gd4_pWR6666HpywGp_ee-61" value="Relation" style="endArrow=none;html=1;endSize=12;startArrow=ERmany;startSize=14;startFill=0;edgeStyle=elbowEdgeStyle;rounded=0;endFill=0;entryX=0;entryY=0.5;entryDx=0;entryDy=0;exitX=1;exitY=0.5;exitDx=0;exitDy=0;" edge="1" parent="1" source="gd4_pWR6666HpywGp_ee-13" target="gd4_pWR6666HpywGp_ee-56">
          <mxGeometry x="0.1351" y="15" relative="1" as="geometry">
            <mxPoint x="610" y="185" as="sourcePoint" />
            <mxPoint x="780" y="180" as="targetPoint" />
            <Array as="points">
              <mxPoint x="680" y="185" />
              <mxPoint x="675" y="165" />
            </Array>
            <mxPoint as="offset" />
          </mxGeometry>
        </mxCell>
      </root>
    </mxGraphModel>
  </diagram>
</mxfile>
